# This file uses centimeters as units for non-parametric coordinates.

v 0.225242 -0.250000 -0.108471
v 0.155872 -0.250000 -0.195458
v 0.055630 -0.250000 -0.243732
v -0.055630 -0.250000 -0.243732
v -0.155872 -0.250000 -0.195458
v -0.225242 -0.250000 -0.108471
v -0.250000 -0.250000 -0.000000
v -0.225242 -0.250000 0.108471
v -0.155872 -0.250000 0.195458
v -0.055630 -0.250000 0.243732
v 0.055630 -0.250000 0.243732
v 0.155872 -0.250000 0.195458
v 0.225242 -0.250000 0.108471
v 0.250000 -0.250000 0.000000
v 0.000000 0.250000 0.000000
vt 0.725242 0.141529
vt 0.655872 0.054542
vt 0.555630 0.006268
vt 0.444370 0.006268
vt 0.344128 0.054542
vt 0.274758 0.141529
vt 0.250000 0.250000
vt 0.274758 0.358471
vt 0.344128 0.445458
vt 0.444370 0.493732
vt 0.555630 0.493732
vt 0.655872 0.445458
vt 0.725242 0.358471
vt 0.750000 0.250000
vt 0.250000 0.500000
vt 0.285714 0.500000
vt 0.321429 0.500000
vt 0.357143 0.500000
vt 0.392857 0.500000
vt 0.428571 0.500000
vt 0.464286 0.500000
vt 0.500000 0.500000
vt 0.535714 0.500000
vt 0.571429 0.500000
vt 0.607143 0.500000
vt 0.642857 0.500000
vt 0.678571 0.500000
vt 0.714286 0.500000
vt 0.750000 0.500000
vt 0.500000 1.000000
vn 0.000000 -1.000000 0.000000
vn 0.000000 -1.000000 0.000000
vn 0.000000 -1.000000 0.000000
vn 0.000000 -1.000000 0.000000
vn 0.000000 -1.000000 0.000000
vn 0.000000 -1.000000 0.000000
vn 0.000000 -1.000000 0.000000
vn 0.000000 -1.000000 0.000000
vn 0.000000 -1.000000 0.000000
vn 0.000000 -1.000000 0.000000
vn 0.000000 -1.000000 0.000000
vn 0.000000 -1.000000 0.000000
vn 0.000000 -1.000000 0.000000
vn 0.000000 -1.000000 0.000000
vn 0.805851 0.447214 -0.388077
vn 0.557666 0.447214 -0.699291
vn -0.000001 1.000000 0.000000
vn 0.199029 0.447214 -0.872002
vn -0.199029 0.447214 -0.872002
vn -0.557666 0.447214 -0.699291
vn -0.805851 0.447214 -0.388078
vn -0.894427 0.447214 -0.000000
vn -0.805851 0.447214 0.388077
vn -0.557666 0.447214 0.699291
vn -0.199029 0.447214 0.872002
vn 0.199029 0.447214 0.872002
vn 0.557666 0.447214 0.699291
vn 0.805851 0.447214 0.388077
vn 0.894427 0.447214 0.000000
f 1/1/1 14/14/2 13/13/3 12/12/4 11/11/5 10/10/6 9/9/7 8/8/8 7/7/9 6/6/10 5/5/11 4/4/12 3/3/13 2/2/14
f 1/15/15 2/16/16 15/30/17
f 2/16/16 3/17/18 15/30/17
f 3/17/18 4/18/19 15/30/17
f 4/18/19 5/19/20 15/30/17
f 5/19/20 6/20/21 15/30/17
f 6/20/21 7/21/22 15/30/17
f 7/21/22 8/22/23 15/30/17
f 8/22/23 9/23/24 15/30/17
f 9/23/24 10/24/25 15/30/17
f 10/24/25 11/25/26 15/30/17
f 11/25/26 12/26/27 15/30/17
f 12/26/27 13/27/28 15/30/17
f 13/27/28 14/28/29 15/30/17
f 14/28/29 1/29/15 15/30/17
